<svg width="542" height="575" viewBox="0 0 542 575" fill="none" xmlns="http://www.w3.org/2000/svg">
<path d="M284.364 225.322C293.209 219.679 295.806 207.934 290.164 199.088L247.093 131.566C241.451 122.72 244.048 110.975 252.894 105.332C261.739 99.6896 264.336 87.9445 258.693 79.0987L249.658 64.9338C244.015 56.088 246.612 44.3428 255.458 38.6997C264.303 33.0572 276.049 35.6538 281.692 44.4998L426.931 272.191C432.573 281.037 429.977 292.782 421.131 298.425C412.285 304.067 409.688 315.812 415.331 324.658L424.367 338.823C430.009 347.669 427.413 359.414 418.567 365.057C409.721 370.7 407.124 382.445 412.767 391.291L455.837 458.812C461.479 467.658 458.883 479.403 450.037 485.045C441.191 490.688 429.446 488.091 423.803 479.245L399.634 441.355C393.991 432.509 382.246 429.913 373.4 435.555C364.555 441.198 352.809 438.601 347.166 429.755L315.653 380.353C310.011 371.507 298.265 368.91 289.419 374.553C280.573 380.195 277.977 391.941 283.619 400.787L296.231 420.558C301.873 429.404 299.277 441.149 290.431 446.791C281.585 452.434 278.988 464.18 284.631 473.025L310.332 513.318C315.975 522.164 313.378 533.909 304.532 539.552C295.686 545.194 283.941 542.598 278.298 533.752L252.596 493.459C246.954 484.613 235.209 482.017 226.363 487.659C217.517 493.302 205.772 490.705 200.129 481.859L54.8897 254.169C49.2472 245.323 51.8438 233.578 60.6896 227.936C69.5354 222.293 81.2805 224.89 86.9237 233.736L112.625 274.028C118.268 282.874 130.013 285.471 138.859 279.828C147.705 274.186 150.302 262.441 144.659 253.595L118.958 213.303C113.315 204.457 115.912 192.712 124.758 187.069C133.604 181.427 136.2 169.682 130.558 160.836L117.946 141.063C112.304 132.218 114.9 120.473 123.746 114.83C132.592 109.188 144.337 111.784 149.98 120.63L181.493 170.032C187.136 178.878 198.882 181.475 207.727 175.832C216.572 170.19 228.318 172.786 233.96 181.632L258.129 219.522C263.772 228.368 275.518 230.965 284.364 225.322Z" fill="#F3F3F3"/>
<path d="M116.114 68.7093C126.595 71.0098 133.226 81.371 130.926 91.8518C128.625 102.333 118.264 108.964 107.783 106.664C97.3024 104.363 90.6709 94.0018 92.9714 83.5211C95.2718 73.0403 105.633 66.4089 116.114 68.7093Z" fill="#F3F3F3"/>
</svg>
