<svg width="519" height="555" viewBox="0 0 519 555" class="fill-primary" xmlns="http://www.w3.org/2000/svg">
<path d="M249.167 339.739C240.651 345.869 238.718 357.741 244.847 366.257L291.638 431.256C297.768 439.772 295.834 451.644 287.318 457.775C278.803 463.904 276.869 475.777 282.999 484.292L292.816 497.928C298.945 506.443 297.012 518.315 288.496 524.446C279.981 530.576 268.109 528.642 261.978 520.127L104.195 300.942C98.0647 292.427 99.9983 280.554 108.514 274.424C117.029 268.294 118.963 256.422 112.833 247.906L103.017 234.271C96.8868 225.755 98.8204 213.883 107.336 207.752C115.851 201.623 117.785 189.75 111.655 181.235L64.8647 116.236C58.7349 107.721 60.6686 95.8485 69.1839 89.7187C77.6993 83.5889 89.5715 85.5225 95.702 94.0379L121.959 130.513C128.089 139.028 139.961 140.962 148.476 134.832C156.992 128.702 168.864 130.636 174.994 139.151L209.229 186.707C215.359 195.223 227.232 197.157 235.747 191.027C244.263 184.897 246.196 173.024 240.067 164.508L226.366 145.476C220.236 136.961 222.169 125.089 230.685 118.959C239.2 112.829 241.134 100.956 235.004 92.4407L207.083 53.6536C200.953 45.1382 202.886 33.2659 211.402 27.1354C219.917 21.0056 231.789 22.9392 237.92 31.4547L265.842 70.2418C271.971 78.7571 283.844 80.6908 292.359 74.561C300.874 68.4311 312.747 70.3648 318.877 78.8802L476.661 298.064C482.791 306.579 480.857 318.452 472.342 324.582C463.826 330.711 451.954 328.778 445.824 320.262L417.902 281.475C411.772 272.96 399.9 271.026 391.384 277.156C382.869 283.286 380.935 295.158 387.065 303.673L414.986 342.46C421.116 350.976 419.182 362.848 410.667 368.978C402.152 375.108 400.218 386.98 406.348 395.495L420.049 414.529C426.178 423.044 424.245 434.917 415.73 441.046C407.214 447.176 395.342 445.243 389.211 436.727L354.977 389.171C348.847 380.655 336.974 378.722 328.459 384.852C319.944 390.981 308.072 389.048 301.942 380.532L275.685 344.058C269.554 335.542 257.682 333.609 249.167 339.739Z"/>
<path d="M425.937 486.666C415.344 484.957 408.142 474.985 409.851 464.391C411.559 453.798 421.532 446.596 432.126 448.305C442.719 450.013 449.921 459.986 448.212 470.58C446.503 481.173 436.531 488.375 425.937 486.666Z"/>
</svg>
