<svg width="882" height="1063" viewBox="0 0 882 1063" fill="none" xmlns="http://www.w3.org/2000/svg">
<path d="M527.766 937.192L528.26 936.757C539.512 926.846 540.601 909.69 530.692 898.437L526.432 893.598C516.523 882.344 517.612 865.188 528.865 855.278L529.358 854.843C540.611 844.931 541.7 827.774 531.789 816.521L493.37 772.891C483.341 761.501 484.444 744.138 495.834 734.107C507.224 724.078 524.587 725.181 534.617 736.571L591.398 801.052C601.307 812.306 618.464 813.395 629.716 803.484L630.21 803.05C641.463 793.14 642.552 775.983 632.642 764.73L507.687 622.827C497.657 611.437 498.76 594.073 510.15 584.044C521.54 574.014 538.903 575.117 548.934 586.507L673.89 728.412C683.799 739.665 700.955 740.755 712.209 730.845L712.703 730.411C723.956 720.5 725.045 703.344 715.136 692.09L429.121 367.282C419.091 355.892 401.727 354.79 390.337 364.819C378.947 374.848 361.584 373.746 351.553 362.356L226.816 220.697C216.786 209.307 199.422 208.205 188.033 218.234C176.643 228.263 175.54 245.627 185.57 257.017L310.307 398.676C320.337 410.066 319.234 427.43 307.844 437.46C296.454 447.489 279.091 446.386 269.06 434.996L212.498 370.762C202.469 359.372 185.105 358.269 173.716 368.299C162.325 378.328 161.223 395.692 171.252 407.082L209.456 450.467C219.485 461.857 218.383 479.221 206.993 489.251C195.602 499.28 194.5 516.644 204.529 528.034L208.357 532.383C218.387 543.773 217.284 561.137 205.894 571.166C194.504 581.196 193.401 598.56 203.43 609.95L489.446 934.759C499.356 946.011 516.512 947.101 527.766 937.192Z" fill="white"/>
<path d="M127.113 541.548C126.128 556.692 137.607 569.768 152.751 570.753C167.896 571.738 180.971 560.259 181.956 545.115C182.941 529.97 171.463 516.895 156.318 515.91C141.174 514.925 128.098 526.403 127.113 541.548Z" fill="white"/>
<path d="M548.138 321.988C540.242 328.897 539.442 340.899 546.351 348.796L599.091 409.068C606 416.964 605.201 428.966 597.304 435.876C589.408 442.785 588.609 454.787 595.518 462.683L606.582 475.327C613.492 483.223 612.692 495.226 604.796 502.136C596.9 509.045 584.898 508.245 577.988 500.349L400.141 297.105C393.232 289.209 394.032 277.207 401.928 270.297C409.824 263.387 410.623 251.385 403.714 243.489L392.65 230.845C385.741 222.949 386.54 210.947 394.436 204.037C402.332 197.128 403.132 185.126 396.223 177.23L343.483 116.958C336.574 109.062 337.374 97.0597 345.27 90.1504C353.166 83.2411 365.168 84.0409 372.078 91.937L401.673 125.759C408.582 133.655 420.584 134.455 428.481 127.546C436.377 120.636 448.379 121.436 455.289 129.332L493.876 173.43C500.786 181.326 512.789 182.126 520.685 175.216C528.581 168.307 529.38 156.304 522.471 148.408L507.028 130.76C500.119 122.864 500.919 110.862 508.815 103.953C516.711 97.0436 517.51 85.0408 510.601 77.1447L479.129 41.1784C472.22 33.2823 473.02 21.2802 480.916 14.3702C488.812 7.46095 500.814 8.2607 507.724 16.1568L539.196 52.1231C546.105 60.0192 558.107 60.8189 566.004 53.9097C573.9 47.0004 585.902 47.8001 592.812 55.6963L770.658 258.94C777.567 266.836 776.768 278.838 768.872 285.747C760.976 292.656 748.974 291.857 742.063 283.96L710.592 247.994C703.682 240.098 691.68 239.298 683.783 246.208C675.887 253.117 675.088 265.119 681.997 273.015L713.469 308.981C720.378 316.877 719.578 328.879 711.682 335.789C703.786 342.698 702.986 354.7 709.896 362.596L725.339 380.246C732.248 388.142 731.448 400.144 723.552 407.053C715.656 413.962 703.654 413.163 696.744 405.267L658.156 361.169C651.247 353.273 639.244 352.473 631.349 359.382C623.453 366.291 611.451 365.492 604.541 357.596L574.946 323.774C568.036 315.878 556.034 315.078 548.138 321.988Z" fill="#009759"/>
<path d="M738.037 451.5C727.33 450.803 719.215 441.558 719.912 430.85C720.609 420.142 729.855 412.027 740.562 412.725C751.27 413.422 759.385 422.667 758.688 433.375C757.99 444.082 748.745 452.197 738.037 451.5Z" fill="#009759"/>
</svg>
