<svg width="1169" height="478" viewBox="0 0 1169 478" fill="none" xmlns="http://www.w3.org/2000/svg">
<mask id="mask0_2006_72" style="mask-type:alpha" maskUnits="userSpaceOnUse" x="0" y="0" width="1169" height="478">
<rect width="1169" height="478" rx="30" fill="#D9D9D9"/>
</mask>
<g mask="url(#mask0_2006_72)">
<rect x="-1" width="1170" height="478" rx="30" fill="#00B96D"/>
<circle cx="41.5" cy="431.5" r="50.5" stroke="white" stroke-width="36"/>
<path d="M968.766 705.192L969.26 704.757C980.512 694.846 981.601 677.69 971.692 666.437L967.432 661.598C957.523 650.344 958.612 633.188 969.865 623.278L970.358 622.843C981.611 612.931 982.7 595.775 972.789 584.521L934.37 540.891C924.341 529.501 925.444 512.138 936.834 502.107C948.224 492.078 965.587 493.181 975.617 504.571L1032.4 569.052C1042.31 580.306 1059.46 581.395 1070.72 571.485L1071.21 571.05C1082.46 561.14 1083.55 543.983 1073.64 532.73L948.687 390.827C938.657 379.437 939.76 362.073 951.15 352.044C962.54 342.014 979.903 343.117 989.934 354.507L1114.89 496.412C1124.8 507.665 1141.96 508.755 1153.21 498.845L1153.7 498.411C1164.96 488.5 1166.05 471.344 1156.14 460.09L870.121 135.282C860.091 123.892 842.727 122.79 831.337 132.819C819.947 142.848 802.584 141.746 792.553 130.356L667.816 -11.3027C657.786 -22.6929 640.422 -23.7954 629.033 -13.766C617.643 -3.73671 616.54 13.6274 626.57 25.0166L751.307 166.676C761.337 178.066 760.234 195.43 748.844 205.46C737.454 215.489 720.091 214.386 710.06 202.996L653.498 138.762C643.469 127.372 626.105 126.269 614.716 136.299C603.325 146.328 602.223 163.692 612.252 175.082L650.456 218.467C660.485 229.857 659.383 247.222 647.993 257.251C636.602 267.28 635.5 284.644 645.529 296.034L649.357 300.383C659.387 311.773 658.284 329.137 646.894 339.166C635.504 349.196 634.401 366.56 644.43 377.95L930.446 702.759C940.356 714.011 957.512 715.101 968.766 705.192Z" fill="white"/>
<path d="M568.113 309.548C567.128 324.692 578.607 337.768 593.751 338.753C608.896 339.738 621.971 328.259 622.956 313.115C623.941 297.97 612.463 284.895 597.318 283.91C582.174 282.925 569.098 294.403 568.113 309.548Z" fill="white"/>
<path d="M989.138 89.9878C981.242 96.8971 980.442 108.899 987.351 116.796L1040.09 177.068C1047 184.964 1046.2 196.966 1038.3 203.876C1030.41 210.785 1029.61 222.787 1036.52 230.683L1047.58 243.327C1054.49 251.223 1053.69 263.226 1045.8 270.136C1037.9 277.045 1025.9 276.245 1018.99 268.349L841.141 65.1048C834.232 57.2087 835.032 45.2066 842.928 38.2966C850.824 31.3873 851.623 19.3852 844.714 11.4892L833.65 -1.15477C826.741 -9.05084 827.54 -21.0529 835.436 -27.9629C843.332 -34.8722 844.132 -46.8743 837.223 -54.7704L784.483 -115.042C777.574 -122.938 778.374 -134.94 786.27 -141.85C794.166 -148.759 806.168 -147.959 813.078 -140.063L842.673 -106.241C849.582 -98.3449 861.584 -97.5452 869.481 -104.454C877.377 -111.364 889.379 -110.564 896.289 -102.668L934.876 -58.5701C941.786 -50.674 953.789 -49.8743 961.685 -56.7835C969.581 -63.6928 970.38 -75.6956 963.471 -83.5917L948.028 -101.24C941.119 -109.136 941.919 -121.138 949.815 -128.047C957.711 -134.956 958.51 -146.959 951.601 -154.855L920.129 -190.822C913.22 -198.718 914.02 -210.72 921.916 -217.63C929.812 -224.539 941.814 -223.739 948.724 -215.843L980.196 -179.877C987.105 -171.981 999.107 -171.181 1007 -178.09C1014.9 -185 1026.9 -184.2 1033.81 -176.304L1211.66 26.9397C1218.57 34.8357 1217.77 46.8378 1209.87 53.7471C1201.98 60.6563 1189.97 59.8566 1183.06 51.9605L1151.59 15.9942C1144.68 8.09812 1132.68 7.2984 1124.78 14.2076C1116.89 21.1169 1116.09 33.119 1123 41.015L1154.47 76.9813C1161.38 84.8774 1160.58 96.8795 1152.68 103.789C1144.79 110.698 1143.99 122.7 1150.9 130.596L1166.34 148.246C1173.25 156.142 1172.45 168.144 1164.55 175.053C1156.66 181.962 1144.65 181.163 1137.74 173.267L1099.16 129.169C1092.25 121.273 1080.24 120.473 1072.35 127.382C1064.45 134.291 1052.45 133.492 1045.54 125.596L1015.95 91.7736C1009.04 83.8775 997.034 83.0778 989.138 89.9878Z" fill="#009759"/>
<path d="M1179.04 219.5C1168.33 218.803 1160.21 209.558 1160.91 198.85C1161.61 188.142 1170.85 180.027 1181.56 180.725C1192.27 181.422 1200.38 190.667 1199.69 201.375C1198.99 212.082 1189.75 220.197 1179.04 219.5Z" fill="#009759"/>
</g>
</svg>
