<svg width="150" height="44" viewBox="0 0 150 44" fill="none" xmlns="http://www.w3.org/2000/svg">
<g clip-path="url(#clip0_2006_95)">
<path fill-rule="evenodd" clip-rule="evenodd" d="M41.355 9.63656C41.3703 9.69335 41.3782 9.7519 41.3783 9.81073V18.9541C41.3783 19.0714 41.3474 19.1867 41.2885 19.2882C41.2297 19.3898 41.1451 19.474 41.0433 19.5324L33.3692 23.9507V32.7082C33.3692 32.9466 33.2425 33.1666 33.0358 33.2866L17.0167 42.5082C16.98 42.5291 16.94 42.5424 16.9 42.5566C16.885 42.5616 16.8708 42.5707 16.855 42.5749C16.743 42.6044 16.6253 42.6044 16.5133 42.5749C16.495 42.5699 16.4783 42.5599 16.4608 42.5532C16.4242 42.5399 16.3858 42.5282 16.3508 42.5082L0.335 33.2866C0.233256 33.2281 0.148717 33.1439 0.0899038 33.0423C0.0310903 32.9408 8.06162e-05 32.8256 0 32.7082L0 5.27823C0 5.21823 0.00833333 5.15989 0.0233333 5.10323C0.0283333 5.08406 0.04 5.06656 0.0466667 5.04739C0.0591667 5.01239 0.0708333 4.97656 0.0891667 4.94406C0.101667 4.92239 0.12 4.90489 0.135 4.88489C0.154167 4.85823 0.171667 4.83073 0.194167 4.80739C0.213333 4.78823 0.238333 4.77406 0.26 4.75739C0.284167 4.73739 0.305833 4.71573 0.333333 4.69989L8.3425 0.0890594C8.4439 0.0307098 8.55884 0 8.67583 0C8.79282 0 8.90777 0.0307098 9.00917 0.0890594L17.0175 4.69989H17.0192C17.0458 4.71656 17.0683 4.73739 17.0925 4.75656C17.1142 4.77323 17.1383 4.78823 17.1575 4.80656C17.1808 4.83073 17.1975 4.85823 17.2175 4.88489C17.2317 4.90489 17.2508 4.92239 17.2625 4.94406C17.2817 4.97739 17.2925 5.01239 17.3058 5.04739C17.3125 5.06656 17.3242 5.08406 17.3292 5.10406C17.3445 5.16085 17.3524 5.2194 17.3525 5.27823V22.4107L24.0258 18.5682V9.80989C24.0258 9.75156 24.0342 9.69239 24.0492 9.63656C24.055 9.61656 24.0658 9.59906 24.0725 9.57989C24.0858 9.54489 24.0975 9.50906 24.1158 9.47656C24.1283 9.45489 24.1467 9.43739 24.1608 9.41739C24.1808 9.39073 24.1975 9.36323 24.2208 9.33989C24.24 9.32073 24.2642 9.30656 24.2858 9.28989C24.3108 9.26989 24.3325 9.24823 24.3592 9.23239L32.3692 4.62156C32.4705 4.56313 32.5855 4.53237 32.7025 4.53237C32.8195 4.53237 32.9345 4.56313 33.0358 4.62156L41.0442 9.23239C41.0725 9.24906 41.0942 9.26989 41.1192 9.28906C41.14 9.30573 41.1642 9.32073 41.1833 9.33906C41.2067 9.36323 41.2233 9.39073 41.2433 9.41739C41.2583 9.43739 41.2767 9.45489 41.2883 9.47656C41.3075 9.50906 41.3183 9.54489 41.3317 9.57989C41.3392 9.59906 41.35 9.61656 41.355 9.63656ZM40.0433 18.5682V10.9649L37.2408 12.5782L33.3692 14.8074V22.4107L40.0442 18.5682H40.0433ZM32.035 32.3224V24.7141L28.2267 26.8891L17.3517 33.0957V40.7757L32.035 32.3224ZM1.335 6.43239V32.3224L16.0167 40.7749V33.0966L8.34667 28.7557L8.34417 28.7541L8.34083 28.7524C8.315 28.7374 8.29333 28.7157 8.26917 28.6974C8.24833 28.6807 8.22417 28.6674 8.20583 28.6491L8.20417 28.6466C8.1825 28.6257 8.1675 28.5999 8.14917 28.5766C8.1325 28.5541 8.1125 28.5349 8.09917 28.5116L8.09833 28.5091C8.08333 28.4841 8.07417 28.4541 8.06333 28.4257C8.0525 28.4007 8.03833 28.3774 8.03167 28.3507C8.02333 28.3191 8.02167 28.2849 8.01833 28.2524C8.015 28.2274 8.00833 28.2024 8.00833 28.1774V28.1757V10.2749L4.1375 8.04489L1.335 6.43239ZM8.67667 1.43739L2.00417 5.27823L8.675 9.11906L15.3467 5.27739L8.675 1.43739H8.67667ZM12.1467 25.4074L16.0175 23.1791V6.43239L13.215 8.04573L9.34333 10.2749V27.0216L12.1467 25.4074ZM32.7025 5.96989L26.0308 9.81073L32.7025 13.6516L39.3733 9.80989L32.7025 5.96989ZM32.035 14.8074L28.1633 12.5782L25.3608 10.9649V18.5682L29.2317 20.7966L32.035 22.4107V14.8074ZM16.6833 31.9416L26.4692 26.3549L31.3608 23.5632L24.6942 19.7249L17.0183 24.1441L10.0225 28.1716L16.6833 31.9416Z" fill="#FF2D20"/>
</g>
<path fill-rule="evenodd" clip-rule="evenodd" d="M58.9775 10.7642V29.9692H65.9258V33.2825H55.2775V10.7642H58.9775ZM78.9858 20.3183V18.2917H82.4925V33.2833H78.9866V31.2558C78.5141 32.0067 77.845 32.5967 76.9758 33.025C76.1075 33.4542 75.2333 33.6683 74.3541 33.6683C73.2166 33.6683 72.1766 33.46 71.2333 33.0417C70.3139 32.6408 69.4869 32.0547 68.8041 31.32C68.1276 30.5892 67.5934 29.7385 67.2291 28.8117C66.8495 27.8487 66.6579 26.8218 66.665 25.7867C66.665 24.7367 66.8525 23.7333 67.2283 22.7783C67.5903 21.8451 68.1249 20.9885 68.8041 20.2533C69.4872 19.5191 70.314 18.9333 71.2333 18.5325C72.1766 18.1142 73.2166 17.9058 74.3541 17.9058C75.2333 17.9058 76.1075 18.12 76.9758 18.5492C77.8441 18.9783 78.5133 19.5675 78.9858 20.3183ZM78.6641 27.6208C78.8801 27.0338 78.9893 26.413 78.9866 25.7875C78.9866 25.1433 78.8783 24.5325 78.6641 23.9542C78.4632 23.3973 78.1577 22.8839 77.7641 22.4417C77.3713 22.0079 76.8952 21.6576 76.3641 21.4117C75.8175 21.155 75.2116 21.0258 74.5475 21.0258C73.8816 21.0258 73.2808 21.155 72.745 21.4117C72.2205 21.6606 71.7504 22.0106 71.3616 22.4417C70.9694 22.8817 70.6691 23.3956 70.4783 23.9533C70.2722 24.5425 70.1684 25.1625 70.1716 25.7867C70.1716 26.43 70.2733 27.0417 70.4775 27.62C70.6808 28.2 70.9758 28.7033 71.3625 29.1325C71.7511 29.5637 72.2212 29.9138 72.7458 30.1625C73.2808 30.42 73.8816 30.5483 74.5466 30.5483C75.2116 30.5483 75.8175 30.42 76.3641 30.1625C76.8953 29.9168 77.3715 29.5665 77.7641 29.1325C78.1577 28.6905 78.4631 28.1774 78.6641 27.6208ZM85.2591 33.2825V18.2917H94.7816V21.7425H88.765V33.2842H85.2591V33.2825ZM107.488 20.3183V18.2917H110.995V33.2833H107.488V31.2558C107.017 32.0067 106.347 32.5967 105.477 33.025C104.609 33.4542 103.736 33.6683 102.856 33.6683C101.719 33.6683 100.679 33.46 99.7358 33.0417C98.8164 32.6408 97.9894 32.0547 97.3066 31.32C96.6298 30.5893 96.0953 29.7386 95.7308 28.8117C95.3514 27.8486 95.1602 26.8217 95.1675 25.7867C95.1675 24.7367 95.355 23.7333 95.7308 22.7783C96.0925 21.8452 96.6269 20.9886 97.3058 20.2533C97.9891 19.519 98.8162 18.9332 99.7358 18.5325C100.679 18.1142 101.719 17.9058 102.856 17.9058C103.735 17.9058 104.609 18.12 105.477 18.5492C106.347 18.9783 107.017 19.5675 107.488 20.3183ZM107.167 27.6208C107.382 27.0338 107.491 26.4129 107.488 25.7875C107.488 25.1433 107.38 24.5325 107.167 23.9542C106.966 23.3973 106.66 22.8839 106.267 22.4417C105.874 22.0079 105.398 21.6576 104.867 21.4117C104.32 21.155 103.713 21.0258 103.049 21.0258C102.384 21.0258 101.783 21.155 101.247 21.4117C100.723 21.6606 100.253 22.0106 99.8641 22.4417C99.4716 22.8816 99.171 23.3955 98.98 23.9533C98.7741 24.5425 98.6707 25.1626 98.6741 25.7867C98.6741 26.43 98.775 27.0417 98.98 27.62C99.1833 28.2 99.4783 28.7033 99.8641 29.1325C100.253 29.5637 100.723 29.9138 101.247 30.1625C101.783 30.42 102.384 30.5483 103.049 30.5483C103.713 30.5483 104.32 30.42 104.867 30.1625C105.398 29.9168 105.874 29.5665 106.267 29.1325C106.66 28.6905 106.966 28.1774 107.167 27.6208ZM125.052 18.2917H128.604L122.85 33.2833H118.442L112.687 18.2917H116.238L120.646 29.7717L125.052 18.2917ZM136.252 17.9058C141.027 17.9058 144.282 22.1375 143.671 27.09H132.038C132.038 28.3833 133.344 30.8833 136.445 30.8833C139.112 30.8833 140.899 28.5375 140.9 28.5358L143.269 30.3692C141.151 32.63 139.417 33.6692 136.701 33.6692C131.848 33.6692 128.559 30.5992 128.559 25.7875C128.559 21.435 131.959 17.9058 136.252 17.9058ZM132.047 24.4842H140.451C140.425 24.1958 139.969 20.6908 136.224 20.6908C132.478 20.6908 132.074 24.1958 132.047 24.4842ZM145.954 33.2825V10.7642H149.461V33.2825H145.954Z" fill="#FF2D20"/>
<defs>
<clipPath id="clip0_2006_95">
<rect width="41.6667" height="43.3333" fill="white"/>
</clipPath>
</defs>
</svg>
