<svg width="130" height="33" viewBox="0 0 130 33" fill="none" xmlns="http://www.w3.org/2000/svg">
<g clip-path="url(#clip0_2006_89)">
<path d="M61.2625 32.9333C61.6135 32.9333 61.9125 32.6384 61.9125 32.2747V16.9607C61.9125 16.9607 62.725 18.4427 64.1875 20.9127L70.525 31.9453C70.8151 32.5612 71.4584 32.9333 71.9875 32.9333H76.375V8.23333H71.9875C71.6953 8.23333 71.3375 8.47936 71.3375 8.892V24.3707L68.4125 19.1013L62.5625 9.05667C62.2778 8.54475 61.6653 8.23333 61.1 8.23333H56.875V32.9333H61.2625Z" fill="black"/>
<path d="M117.975 15.1493H120.087C120.626 15.1493 121.062 14.707 121.062 14.1613V9.88H125.612V15.1493H130V19.1013H125.612V26.182C125.612 27.911 126.434 28.652 127.887 28.652H130V32.9333H127.237C123.492 32.9333 121.062 30.475 121.062 26.3467V19.1013H117.975V15.1493Z" fill="black"/>
<path d="M96.0375 15.1493V25.3587C96.0375 27.6647 95.1831 29.6085 93.925 30.9573C92.667 32.3061 90.9295 32.9333 88.5625 32.9333C86.1956 32.9333 84.2956 32.3061 83.0375 30.9573C81.8008 29.6085 80.925 27.6647 80.925 25.3587V15.1493H83.525C84.0795 15.1493 84.625 15.2518 84.9875 15.6433C85.3501 16.0132 85.475 16.2304 85.475 16.796V25.3587C85.475 26.6857 85.5493 27.5054 86.125 28.158C86.7008 28.7888 87.4111 28.9813 88.5625 28.9813C89.7353 28.9813 90.2618 28.7888 90.8375 28.158C91.4133 27.5054 91.4875 26.6857 91.4875 25.3587V16.796C91.4875 16.2304 91.6125 15.8702 91.975 15.4787C92.2935 15.1346 92.6296 15.1427 93.1125 15.1493C93.1793 15.1502 93.3703 15.1493 93.4375 15.1493H96.0375Z" fill="black"/>
<path d="M109.85 23.712L115.375 15.1493H111.15C110.618 15.1493 110.144 15.3429 109.85 15.808L107.25 19.76L104.813 15.9727C104.518 15.5076 103.883 15.1493 103.35 15.1493H99.2875L104.813 23.5473L98.8 32.9333H103.025C103.553 32.9333 104.03 32.4043 104.325 31.9453L107.25 27.4993L110.338 32.11C110.633 32.5689 111.109 32.9333 111.638 32.9333H115.863L109.85 23.712Z" fill="black"/>
<path d="M27.3 32.9333H45.3375C45.9131 32.9333 46.4639 32.7285 46.9625 32.4393C47.461 32.1502 47.9749 31.7874 48.2625 31.2867C48.5501 30.7859 48.7503 30.218 48.75 29.6398C48.7497 29.0617 48.5506 28.4939 48.2625 27.9935L36.075 6.75133C35.7874 6.25075 35.4359 5.88769 34.9375 5.59867C34.4391 5.30964 33.7256 5.10467 33.15 5.10467C32.5744 5.10467 32.0234 5.30964 31.525 5.59867C31.0266 5.88769 30.6751 6.25075 30.3875 6.75133L27.3 12.1853L21.125 1.64628C20.837 1.14572 20.486 0.618309 19.9875 0.329333C19.489 0.0403577 18.9381 0 18.3625 0C17.7869 0 17.2361 0.0403577 16.7375 0.329333C16.239 0.618309 15.7254 1.14572 15.4375 1.64628L0.325001 27.9935C0.036885 28.4939 0.000251683 29.0617 1.23631e-06 29.6398C-0.00024921 30.218 0.0373187 30.7859 0.325001 31.2867C0.612683 31.7873 1.12652 32.1502 1.625 32.4393C2.12347 32.7285 2.67439 32.9333 3.25 32.9333H14.625C19.1323 32.9333 22.4128 30.8846 24.7 27.0053L30.225 17.29L33.15 12.1853L42.0875 27.664H30.225L27.3 32.9333ZM14.4625 27.664H6.5L18.3625 6.916L24.375 17.29L20.3923 24.3254C18.8734 26.8423 17.1418 27.664 14.4625 27.664Z" fill="#00DC82"/>
</g>
<defs>
<clipPath id="clip0_2006_89">
<rect width="130" height="32.9333" fill="white"/>
</clipPath>
</defs>
</svg>
